<?xml version="1.0" encoding="UTF-8"?>
<svg id="dark_blue_xl_pattern" data-name="dark blue xl pattern" xmlns="http://www.w3.org/2000/svg" xmlns:xlink="http://www.w3.org/1999/xlink" viewBox="0 0 1920 1080">
  <defs>
    <style>
      .cls-1 {
        fill: url(#dark_blue_xl);
      }

      .cls-2 {
        fill: #232073;
      }

      .cls-3 {
        fill: none;
      }
    </style>
    <pattern id="dark_blue_xl" data-name="dark blue xl" x="0" y="0" width="467.93" height="540" patternTransform="translate(-146.99 -15289.33) scale(1 -1)" patternUnits="userSpaceOnUse" viewBox="0 0 467.93 540">
      <g>
        <rect class="cls-3" width="467.93" height="540"/>
        <g>
          <rect class="cls-3" width="467.93" height="540"/>
          <g>
            <polygon class="cls-2" points="188.85 176.47 233.96 150.45 272.19 172.5 259.96 179.56 233.96 164.56 201.08 183.53 201.08 217.5 201.09 217.5 201.08 273.53 155.98 299.56 117.75 277.5 127.9 271.64 129.98 270.44 155.98 285.44 188.86 266.47 188.86 232.5 188.85 232.5 188.85 176.47"/>
            <polygon class="cls-2" points="318.83 401.47 370.83 371.47 370.83 303.53 315.39 271.54 315.39 271.54 292.84 258.53 292.84 236.47 305.07 229.41 305.07 247.5 305.07 247.5 305.07 251.47 308.51 253.46 308.51 253.46 360.79 283.62 383.05 296.47 383.05 378.53 318.83 415.59 318.83 401.47"/>
            <polygon class="cls-2" points="136.86 348.53 136.86 334.41 155.98 345.44 233.96 300.44 305.07 341.47 305.07 415.59 292.84 408.53 292.84 348.53 233.96 314.56 178.53 346.54 178.53 346.54 155.98 359.56 136.86 348.53"/>
            <polygon class="cls-2" points="227.08 540 214.85 540 214.85 487.5 214.85 487.5 214.85 461.47 233.96 450.45 246.19 457.5 230.52 466.54 230.52 466.55 227.08 468.53 227.08 472.5 227.08 472.5 227.08 540"/>
            <polygon class="cls-2" points="201.08 540 182.74 540 188.86 536.47 188.86 502.5 188.85 502.5 188.85 446.47 233.96 420.45 272.19 442.5 259.96 449.56 233.96 434.56 201.08 453.53 201.08 487.5 201.09 487.5 201.08 540"/>
            <polygon class="cls-2" points="110.87 363.53 110.87 319.41 123.1 326.47 123.1 356.47 155.98 375.45 185.41 358.46 185.41 358.46 233.96 330.44 279.07 356.47 279.07 400.59 266.84 393.53 266.84 363.53 233.96 344.56 204.53 361.54 204.53 361.55 155.98 389.56 110.87 363.53"/>
            <polygon class="cls-2" points="71.11 386.47 74.55 388.46 74.55 388.46 124.52 417.29 149.09 431.47 149.09 513.53 103.22 540 84.87 540 84.87 536.47 136.86 506.47 136.86 438.53 81.43 406.54 81.43 406.54 58.88 393.53 58.88 371.47 71.11 364.42 71.11 382.5 71.11 382.5 71.11 386.47"/>
            <polygon class="cls-2" points="285.96 164.56 233.96 134.56 175.09 168.53 175.09 232.5 175.09 232.5 175.09 258.53 155.98 269.56 143.75 262.5 162.86 251.47 162.86 161.47 233.96 120.44 298.18 157.5 285.96 164.56"/>
            <polygon class="cls-2" points="175.09 438.53 175.09 502.5 175.09 502.5 175.09 528.53 155.98 539.56 143.75 532.5 162.86 521.47 162.86 431.47 233.96 390.44 298.18 427.5 285.96 434.56 233.96 404.56 175.09 438.53"/>
            <polygon class="cls-2" points="311.95 157.5 311.95 157.5 311.95 157.5 311.95 157.5"/>
            <polygon class="cls-2" points="396.82 26.47 442.7 0 467.16 0 409.05 33.53 409.05 97.5 409.05 97.5 409.05 123.53 389.94 134.56 377.71 127.5 396.82 116.47 396.82 26.47"/>
            <polygon class="cls-2" points="230.52 196.54 227.08 198.53 227.08 202.5 227.08 202.5 227.08 288.53 173.47 319.47 155.98 329.56 91.76 292.5 103.99 285.44 155.98 315.44 214.85 281.47 214.85 217.5 214.85 217.5 214.85 191.47 233.96 180.44 246.19 187.5 230.52 196.54 230.52 196.54"/>
            <polygon class="cls-2" points="311.95 427.5 311.95 427.5 311.95 427.5 311.95 427.5"/>
            <polygon class="cls-2" points="266.84 3.53 266.84 0 285.19 0 308.51 13.46 308.51 13.46 357.06 41.47 357.06 93.53 318.83 115.58 318.83 101.47 344.83 86.47 344.83 48.53 315.39 31.54 315.39 31.54 266.84 3.53"/>
            <polygon class="cls-2" points="305.07 183.53 253.08 213.53 253.08 281.47 308.51 313.46 308.51 313.46 331.07 326.47 331.06 348.53 318.83 355.59 318.83 337.5 318.83 337.5 318.83 333.53 240.85 288.53 240.85 206.47 305.07 169.42 305.07 183.53"/>
            <polygon class="cls-2" points="357.06 311.47 357.06 363.53 318.83 385.58 318.83 371.47 344.83 356.47 344.83 318.53 315.39 301.54 315.39 301.55 266.84 273.53 266.84 221.47 305.07 199.42 305.07 213.53 279.07 228.53 279.07 266.47 308.51 283.46 308.51 283.46 357.06 311.47"/>
            <polygon class="cls-2" points="383.05 108.53 318.83 145.59 318.83 131.47 370.83 101.47 370.83 33.53 315.39 1.54 315.39 1.54 312.72 0 337.18 0 360.79 13.62 383.05 26.47 383.05 108.53"/>
            <polygon class="cls-2" points="279.07 86.47 279.07 130.59 266.84 123.53 266.84 93.53 233.96 74.56 204.53 91.54 204.53 91.54 155.98 119.55 110.87 93.53 110.87 49.41 123.1 56.47 123.1 86.47 155.98 105.45 185.41 88.46 185.41 88.46 233.96 60.44 279.07 86.47"/>
            <polygon class="cls-2" points="467.93 209.56 438.49 226.54 438.49 226.54 389.94 254.56 344.83 228.53 344.83 184.41 357.06 191.47 357.06 221.47 389.94 240.45 419.38 223.46 419.38 223.46 467.93 195.44 467.93 195.44 467.93 209.56 467.93 209.56"/>
            <polygon class="cls-2" points="32.88 408.53 32.88 356.47 71.11 334.41 71.11 348.53 45.11 363.53 45.11 401.47 74.55 418.46 74.55 418.46 123.1 446.47 123.1 498.53 84.87 520.59 84.87 506.47 110.87 491.47 110.87 453.53 81.43 436.54 81.43 436.54 32.88 408.53"/>
            <polygon class="cls-2" points="467.93 479.56 438.49 496.54 438.49 496.54 389.94 524.56 344.83 498.53 344.83 454.42 357.06 461.47 357.06 491.47 389.94 510.45 419.38 493.46 419.38 493.46 467.93 465.44 467.93 465.44 467.93 479.56 467.93 479.56"/>
            <polygon class="cls-2" points="97.1 311.47 97.1 371.47 155.98 405.45 211.41 373.46 211.41 373.46 233.96 360.45 253.08 371.47 253.08 385.58 237.4 376.54 237.4 376.54 233.96 374.56 230.52 376.54 230.52 376.54 155.97 419.56 84.87 378.53 84.87 304.42 97.1 311.47"/>
            <polygon class="cls-2" points="32.88 138.53 32.88 86.47 71.11 64.42 71.11 78.53 45.11 93.53 45.11 131.47 74.55 148.46 74.55 148.46 123.1 176.47 123.1 228.53 84.87 250.58 84.87 236.47 110.87 221.47 110.87 183.53 81.43 166.54 81.43 166.54 32.88 138.53"/>
            <polygon class="cls-2" points="285.19 540 266.84 540 266.84 491.47 305.07 469.41 305.07 483.53 279.07 498.53 279.07 536.47 285.19 540"/>
            <polygon class="cls-2" points="467.93 239.56 464.48 241.54 464.48 241.54 389.94 284.56 318.83 243.53 318.84 169.42 331.06 176.47 331.06 236.47 389.94 270.44 445.37 238.46 445.37 238.45 467.93 225.45 467.93 225.45 467.93 239.56 467.93 239.56"/>
            <polygon class="cls-2" points="435.05 138.53 389.94 164.56 351.71 142.5 363.94 135.44 389.94 150.44 422.82 131.47 422.82 97.5 422.82 97.5 422.82 41.47 467.93 15.44 467.93 29.56 467.93 29.56 435.05 48.53 435.05 82.5 435.05 82.5 435.05 138.53"/>
            <polygon class="cls-2" points="318.84 439.41 331.06 446.47 331.06 506.47 389.17 540 364.71 540 318.83 513.53 318.84 439.41"/>
            <polygon class="cls-2" points="71.11 116.47 74.55 118.46 74.55 118.46 124.52 147.29 149.09 161.47 149.09 243.53 84.87 280.59 84.87 266.47 136.86 236.47 136.86 168.53 81.43 136.54 81.43 136.54 58.88 123.53 58.88 101.47 71.11 94.42 71.11 112.5 71.11 112.5 71.11 116.47"/>
            <polygon class="cls-2" points="435.05 408.53 389.94 434.56 351.71 412.5 363.94 405.45 389.94 420.44 422.82 401.48 422.82 367.5 422.82 367.5 422.82 311.47 467.93 285.45 467.93 299.56 467.93 299.55 435.05 318.53 435.05 352.5 435.05 352.5 435.05 408.53"/>
            <polygon class="cls-2" points="409.05 303.53 409.05 367.5 409.05 367.5 409.05 393.53 389.94 404.56 377.71 397.5 396.82 386.47 396.82 296.47 467.93 255.44 467.93 255.44 467.93 269.56 409.05 303.53"/>
            <polygon class="cls-2" points="84.87 10.59 84.87 0 103.22 0 84.87 10.59"/>
            <polygon class="cls-2" points="442.7 540 467.93 525.45 467.93 525.45 467.93 539.56 467.16 540 442.7 540"/>
            <polygon class="cls-2" points="19.11 236.47 19.11 250.58 3.44 241.54 3.44 241.54 0 239.56 0 225.44 19.11 236.47"/>
            <polygon class="cls-2" points="253.08 0 253.08 11.47 308.51 43.46 308.51 43.46 331.07 56.47 331.06 78.53 318.83 85.59 318.83 67.5 318.83 67.5 318.83 63.53 240.85 18.53 240.85 0 253.08 0"/>
            <polygon class="cls-2" points="0 59.56 0 45.44 12.23 52.5 0 59.56"/>
            <polygon class="cls-2" points="292.84 528.53 292.84 506.47 305.07 499.42 305.07 517.5 305.07 517.5 305.07 521.47 308.51 523.46 308.51 523.46 337.18 540 312.72 540 292.84 528.53"/>
            <polygon class="cls-2" points="467.93 449.56 412.49 481.54 412.49 481.54 389.94 494.56 370.83 483.53 370.83 469.42 389.94 480.44 451.29 445.04 467.93 435.44 467.93 435.44 467.93 449.56 467.93 449.56"/>
            <polygon class="cls-2" points="26 314.56 0 299.56 0 285.45 38.22 307.5 26 314.56"/>
            <polygon class="cls-2" points="19.11 506.47 19.11 520.58 3.44 511.54 3.44 511.54 0 509.56 0 495.45 19.11 506.47"/>
            <polygon class="cls-2" points="155.98 15.44 182.74 0 201.08 0 201.08 3.53 155.98 29.56 117.75 7.5 127.9 1.64 129.98 .44 155.98 15.44"/>
            <polygon class="cls-2" points="58.88 3.53 58.88 0 71.1 0 71.1 10.59 58.88 3.53"/>
            <polygon class="cls-2" points="51.99 29.56 .77 0 25.23 0 64.22 22.5 51.99 29.56"/>
            <polygon class="cls-2" points="26 44.56 0 29.56 0 15.44 38.22 37.5 26 44.56"/>
            <polygon class="cls-2" points="214.85 11.47 214.85 0 227.08 0 227.08 18.53 173.47 49.46 155.98 59.56 91.76 22.5 103.99 15.44 155.98 45.44 214.85 11.47"/>
            <polygon class="cls-2" points="51.99 299.56 0 269.56 0 255.44 64.22 292.5 51.99 299.56"/>
            <polygon class="cls-2" points=".77 540 0 539.56 0 525.44 25.23 540 .77 540"/>
            <polygon class="cls-2" points="253.08 540 240.85 540 240.85 476.47 305.07 439.42 305.07 453.53 253.08 483.53 253.08 540"/>
            <polygon class="cls-2" points="71.1 476.47 71.1 540 58.88 540 58.88 483.53 0 449.56 0 435.45 0 435.44 71.1 476.47"/>
            <polygon class="cls-2" points="464.48 511.54 415.16 540 390.71 540 445.37 508.46 445.37 508.46 467.93 495.45 467.93 495.45 467.93 509.56 467.93 509.56 464.48 511.54 464.48 511.54"/>
            <polygon class="cls-2" points="0 479.56 0 465.44 45.11 491.47 45.11 535.58 32.88 528.53 32.88 498.53 0 479.56"/>
            <polygon class="cls-2" points="325.72 427.5 337.95 420.44 389.94 450.45 448.81 416.47 448.81 352.5 448.81 352.5 448.81 326.47 467.93 315.44 467.93 315.44 467.93 329.56 464.48 331.54 464.48 331.54 461.04 333.53 461.04 337.5 461.04 337.5 461.04 423.53 447.56 431.31 389.94 464.56 325.72 427.5"/>
            <polygon class="cls-2" points="71.11 318.53 19.11 348.53 19.11 416.47 74.55 448.46 74.55 448.46 97.1 461.47 97.1 483.53 84.87 490.59 84.87 472.5 84.87 472.5 84.87 468.53 6.88 423.53 6.88 341.47 71.11 304.42 71.11 318.53"/>
            <polygon class="cls-2" points="97.1 101.47 155.98 135.44 211.41 103.46 211.41 103.46 233.96 90.44 253.08 101.47 253.08 115.58 237.4 106.54 237.4 106.54 233.96 104.56 230.52 106.54 230.52 106.54 155.97 149.56 84.87 108.53 84.87 34.41 97.1 41.47 97.1 101.47"/>
            <polygon class="cls-2" points="325.72 157.5 337.95 150.44 389.94 180.44 448.81 146.47 448.81 82.5 448.81 82.5 448.81 56.47 467.93 45.44 467.93 45.44 467.93 59.56 464.48 61.54 464.48 61.54 461.04 63.53 461.04 67.5 461.04 67.5 461.04 153.53 447.56 161.31 389.94 194.56 325.72 157.5"/>
            <polygon class="cls-2" points="0 209.56 0 195.44 45.11 221.47 45.11 265.59 32.88 258.53 32.88 228.53 0 209.56"/>
            <polygon class="cls-2" points="71.11 48.53 19.11 78.53 19.11 146.47 74.55 178.46 74.55 178.46 97.1 191.47 97.1 213.53 84.87 220.59 84.87 202.5 84.87 202.5 84.87 198.53 6.88 153.53 6.88 71.47 71.11 34.42 71.11 48.53"/>
            <polygon class="cls-2" points="305.07 71.47 305.07 145.59 292.84 138.53 292.84 78.53 233.96 44.55 178.53 76.54 178.53 76.54 155.98 89.56 136.86 78.53 136.86 64.42 155.98 75.44 233.96 30.44 305.07 71.47"/>
            <polygon class="cls-2" points="0 329.56 0 315.44 12.23 322.5 0 329.56"/>
            <polygon class="cls-2" points="389.94 .44 390.71 0 415.16 0 389.94 14.56 364.71 0 389.17 0 389.94 .44"/>
            <polygon class="cls-2" points="467.93 179.56 412.49 211.54 412.49 211.55 389.94 224.56 370.83 213.53 370.83 199.42 389.94 210.44 451.29 175.04 467.93 165.45 467.93 165.45 467.93 179.56 467.93 179.56"/>
            <polygon class="cls-2" points="71.1 206.47 71.1 280.58 58.88 273.53 58.88 213.53 0 179.56 0 165.45 0 165.45 71.1 206.47"/>
          </g>
        </g>
      </g>
    </pattern>
  </defs>
  <rect class="cls-1" width="1920" height="1080"/>
</svg>